<svg width="100" height="35" viewBox="0 0 329 141" fill="none" xmlns="http://www.w3.org/2000/svg">
<path d="M49.3764 136.823C52.5464 136.153 55.4964 134.803 58.2464 132.763C58.6964 132.433 58.6364 132.283 58.0764 132.313C57.1164 132.373 56.1864 132.673 55.2964 133.203C55.0164 133.373 54.7164 133.473 54.3964 133.523L49.5664 134.263C41.0564 133.463 34.1164 131.263 28.8464 124.433C21.5164 114.923 20.3064 101.613 23.0164 89.8928C30.7864 56.2128 65.5164 38.3128 96.2964 31.3928C97.2864 31.1728 97.5064 31.4828 96.9364 32.3228L85.9164 48.5728C85.4464 49.2628 84.7364 49.7628 83.9164 49.9628C63.5764 54.8828 44.1064 65.2528 34.0364 83.3628C27.3064 95.4828 25.0864 111.513 33.4464 123.113C40.0864 132.323 54.8264 133.883 63.7764 127.323C65.9564 125.723 67.9664 123.813 69.7964 121.603C70.2064 121.113 70.3064 121.173 70.1164 121.773C69.8864 122.503 69.5464 123.183 69.0964 123.813C58.3864 139.033 43.9564 143.653 25.7864 137.673C22.4164 136.563 18.6364 134.043 16.0964 131.603C-0.223568 115.923 -2.75356 90.0128 2.39644 68.6028C9.79644 37.7928 32.2364 14.7128 60.5664 0.432812C61.5264 -0.057188 62.5064 -0.127199 63.5164 0.202801C69.2964 2.0928 75.4764 3.9528 82.0464 5.7828C83.6664 6.2328 83.6664 6.67281 82.0364 7.10281C66.2864 11.2928 52.0064 18.4828 39.1764 28.6728C24.3764 40.4328 14.4064 55.2228 9.25643 73.0428C4.15643 90.7028 5.30644 113.773 18.0864 127.963C25.7664 136.483 38.6664 139.373 49.3764 136.823Z" fill="#083C5E"/>
<path d="M49.5664 134.263L54.3964 133.523C54.7164 133.473 55.0164 133.373 55.2964 133.203C56.1864 132.673 57.1164 132.373 58.0764 132.313C58.6364 132.283 58.6964 132.433 58.2464 132.763C55.4964 134.803 52.5464 136.153 49.3764 136.823C47.4864 136.653 45.6164 136.563 43.7664 136.553C31.1164 136.443 21.6464 130.253 15.9364 118.403C8.40638 102.793 9.58639 83.6528 16.2564 67.6828C29.4164 36.1828 61.2064 17.9228 93.0564 9.9228C93.8864 9.7128 94.6964 9.7228 95.4764 9.9528C99.5264 11.1628 103.836 12.4628 108.426 13.8728C108.846 14.0028 109.016 14.4928 108.776 14.8528L102.976 23.3828C102.776 23.6728 102.506 23.8728 102.176 23.9628C101.226 24.2328 100.256 24.4528 99.2764 24.6128C74.4164 28.5528 50.2464 38.1628 33.9564 56.7928C24.0664 68.1128 18.5164 80.9128 17.3264 95.1828C16.1164 109.613 21.3964 127.743 36.7264 132.833C41.0264 134.263 45.3064 134.733 49.5664 134.263Z" fill="#0C9DD8"/>
<path d="M70.11 111.413C65.626 111.413 61.968 110.449 59.136 108.522C56.3433 106.555 54.947 103.782 54.947 100.203C54.947 99.849 54.9863 99.318 55.065 98.61H65.567C65.449 100.105 65.803 101.285 66.629 102.15C67.455 103.015 68.7137 103.448 70.405 103.448C71.939 103.448 73.1387 103.114 74.004 102.445C74.9087 101.776 75.361 100.832 75.361 99.613C75.361 98.3543 74.7907 97.3317 73.65 96.545C72.5487 95.7583 70.818 94.8733 68.458 93.89C66.1767 92.946 64.3083 92.061 62.853 91.235C61.437 90.3697 60.198 89.2093 59.136 87.754C58.074 86.2987 57.543 84.4697 57.543 82.267C57.5037 79.553 58.1723 77.193 59.549 75.187C60.9257 73.181 62.8333 71.647 65.272 70.585C67.7107 69.523 70.5033 68.992 73.65 68.992C76.482 68.992 78.9993 69.4443 81.202 70.349C83.4047 71.2143 85.1157 72.4927 86.335 74.184C87.5543 75.836 88.164 77.8027 88.164 80.084C88.164 80.674 88.1443 81.1067 88.105 81.382H77.367C77.4063 81.2247 77.426 80.9887 77.426 80.674C77.426 79.5727 77.0327 78.6877 76.246 78.019C75.4987 77.311 74.4563 76.957 73.119 76.957C71.703 76.957 70.5427 77.311 69.638 78.019C68.7727 78.6877 68.34 79.612 68.34 80.792C68.34 81.972 68.8907 82.975 69.992 83.801C71.0933 84.5877 72.8043 85.512 75.125 86.574C77.4457 87.636 79.3337 88.6193 80.789 89.524C82.2837 90.4287 83.562 91.648 84.624 93.182C85.686 94.6767 86.217 96.5253 86.217 98.728C86.217 101.167 85.568 103.35 84.27 105.277C82.972 107.204 81.1037 108.719 78.665 109.82C76.2263 110.882 73.3747 111.413 70.11 111.413ZM116.429 77.724C119.654 77.724 122.191 78.6483 124.04 80.497C125.928 82.3457 126.872 84.922 126.872 88.226C126.872 89.3273 126.754 90.5073 126.518 91.766L123.096 111H113.066L116.252 93.123C116.37 92.4543 116.429 91.8643 116.429 91.353C116.429 89.701 115.957 88.4227 115.013 87.518C114.108 86.6133 112.83 86.161 111.178 86.161C109.211 86.161 107.559 86.7707 106.222 87.99C104.885 89.2093 104.019 90.9203 103.626 93.123V93.005L100.44 111H90.3511L98.0801 67.34H108.169L105.514 82.444C106.812 80.9887 108.405 79.848 110.293 79.022C112.181 78.1567 114.226 77.724 116.429 77.724ZM141.612 74.656C140.039 74.656 138.78 74.243 137.836 73.417C136.931 72.5517 136.479 71.47 136.479 70.172C136.479 68.402 137.167 66.8877 138.544 65.629C139.921 64.3703 141.592 63.741 143.559 63.741C145.132 63.741 146.371 64.1737 147.276 65.039C148.181 65.865 148.633 66.9467 148.633 68.284C148.633 70.0147 147.945 71.5093 146.568 72.768C145.191 74.0267 143.539 74.656 141.612 74.656ZM145.978 78.078L140.196 111H130.107L135.889 78.078H145.978ZM162.552 82.739C163.811 81.205 165.384 79.966 167.272 79.022C169.2 78.078 171.324 77.606 173.644 77.606C177.184 77.606 180.036 78.7663 182.199 81.087C184.402 83.4077 185.503 86.5543 185.503 90.527C185.503 91.7463 185.385 93.064 185.149 94.48C184.559 97.8627 183.399 100.852 181.668 103.448C179.938 106.005 177.853 107.991 175.414 109.407C172.976 110.784 170.399 111.472 167.685 111.472C165.404 111.472 163.477 111 161.903 110.056C160.33 109.112 159.17 107.893 158.422 106.398L154.823 126.694H144.734L153.289 78.078H163.378L162.552 82.739ZM174.942 94.48C175.06 93.8113 175.119 93.2017 175.119 92.651C175.119 90.6843 174.549 89.1503 173.408 88.049C172.307 86.9477 170.891 86.397 169.16 86.397C167.154 86.397 165.325 87.1247 163.673 88.58C162.021 90.0353 160.959 92.0217 160.487 94.539C160.369 95.247 160.31 95.896 160.31 96.486C160.31 98.4133 160.861 99.9277 161.962 101.029C163.064 102.13 164.48 102.681 166.21 102.681C168.216 102.681 170.045 101.953 171.697 100.498C173.389 99.0033 174.47 96.9973 174.942 94.48ZM203.54 77.547L202.065 86.161H215.576L214.219 93.772H200.708L199.056 103.035H214.337L212.921 111H187.551L194.867 69.582H220.237L218.821 77.547H203.54ZM220.415 94.48C221.005 91.0973 222.166 88.1277 223.896 85.571C225.627 83.0143 227.712 81.0477 230.15 79.671C232.589 78.2943 235.165 77.606 237.879 77.606C240.2 77.606 242.147 78.078 243.72 79.022C245.294 79.966 246.434 81.205 247.142 82.739L247.968 78.078H258.057L252.216 111H242.127L243.012 106.339C241.754 107.873 240.161 109.112 238.233 110.056C236.306 111 234.182 111.472 231.861 111.472C229.541 111.472 227.476 110.941 225.666 109.879C223.896 108.817 222.52 107.322 221.536 105.395C220.553 103.428 220.061 101.127 220.061 98.492C220.061 97.2333 220.179 95.896 220.415 94.48ZM245.077 94.539C245.195 93.831 245.254 93.182 245.254 92.592C245.254 90.6647 244.684 89.1503 243.543 88.049C242.442 86.9477 241.026 86.397 239.295 86.397C237.289 86.397 235.46 87.1247 233.808 88.58C232.156 89.996 231.114 91.9627 230.681 94.48C230.563 95.188 230.504 95.837 230.504 96.427C230.504 98.3543 231.055 99.8883 232.156 101.029C233.297 102.13 234.713 102.681 236.404 102.681C238.41 102.681 240.239 101.953 241.891 100.498C243.543 99.0427 244.605 97.0563 245.077 94.539ZM273.203 111.472C270.607 111.472 268.267 111.059 266.182 110.233C264.137 109.407 262.524 108.266 261.344 106.811C260.164 105.316 259.574 103.605 259.574 101.678C259.574 101.403 259.614 100.911 259.692 100.203H269.427C269.349 101.422 269.703 102.406 270.489 103.153C271.315 103.861 272.476 104.215 273.97 104.215C275.229 104.215 276.271 103.979 277.097 103.507C277.923 103.035 278.336 102.366 278.336 101.501C278.336 100.675 277.884 100.026 276.979 99.554C276.114 99.0427 274.659 98.433 272.613 97.725C270.489 97.017 268.7 96.3287 267.244 95.66C265.828 94.952 264.609 93.949 263.586 92.651C262.564 91.353 262.052 89.7207 262.052 87.754C262.052 85.8267 262.623 84.096 263.763 82.562C264.904 80.9887 266.497 79.7693 268.542 78.904C270.627 78.0387 273.026 77.606 275.74 77.606C278.454 77.606 280.814 78.0583 282.82 78.963C284.826 79.8283 286.38 81.0477 287.481 82.621C288.583 84.1943 289.133 85.9643 289.133 87.931L289.074 88.816H279.929C280.008 87.636 279.654 86.692 278.867 85.984C278.081 85.276 276.96 84.922 275.504 84.922C274.364 84.922 273.42 85.158 272.672 85.63C271.964 86.102 271.61 86.751 271.61 87.577C271.61 88.4423 272.082 89.17 273.026 89.76C274.01 90.3107 275.524 90.94 277.569 91.648C279.693 92.356 281.444 93.064 282.82 93.772C284.236 94.4407 285.436 95.4043 286.419 96.663C287.442 97.8823 287.953 99.4163 287.953 101.265C287.953 103.389 287.304 105.218 286.006 106.752C284.748 108.286 282.997 109.466 280.755 110.292C278.553 111.079 276.035 111.472 273.203 111.472ZM312.947 77.606C317.195 77.606 320.558 78.7663 323.036 81.087C325.553 83.3683 326.812 86.4953 326.812 90.468C326.812 91.766 326.713 92.9263 326.517 93.949C326.359 94.8537 326.123 95.8173 325.809 96.84H302.976C302.936 97.076 302.917 97.4497 302.917 97.961C302.917 99.6917 303.389 101.009 304.333 101.914C305.277 102.819 306.535 103.271 308.109 103.271C310.626 103.271 312.553 102.209 313.891 100.085H324.629C323.213 103.428 320.912 106.162 317.726 108.286C314.54 110.41 310.96 111.472 306.988 111.472C302.74 111.472 299.337 110.292 296.781 107.932C294.263 105.572 293.005 102.366 293.005 98.315C293.005 97.0957 293.123 95.837 293.359 94.539C293.949 91.117 295.168 88.1277 297.017 85.571C298.865 83.0143 301.166 81.0477 303.92 79.671C306.673 78.2943 309.682 77.606 312.947 77.606ZM316.605 91.707C316.683 91.1563 316.723 90.7827 316.723 90.586C316.723 89.0127 316.231 87.813 315.248 86.987C314.264 86.1217 312.966 85.689 311.354 85.689C309.623 85.689 308.089 86.22 306.752 87.282C305.454 88.3047 304.51 89.7797 303.92 91.707H316.605Z" fill="#083C5E"/>
</svg>
