<?xml version="1.0" encoding="UTF-8" standalone="no"?>
<!DOCTYPE svg PUBLIC "-//W3C//DTD SVG 1.0//EN" "http://www.w3.org/TR/2001/REC-SVG-20010904/DTD/svg10.dtd">
<svg xmlns="http://www.w3.org/2000/svg" version="1.0" viewBox="0.00 0.00 612.00 425.00" width="612.00" height="425.00">
<path fill="#ffffff" d="
  M 0.00 0.00
  L 612.00 0.00
  L 612.00 425.00
  L 0.00 425.00
  L 0.00 0.00
  Z
  M 166.08 276.68
  C 161.82 277.15 157.54 276.68 153.24 275.25
  C 137.91 270.16 132.63 252.03 133.84 237.60
  C 135.03 223.33 140.58 210.53 150.47 199.21
  C 166.76 180.58 190.93 170.97 215.79 167.03
  C 216.77 166.87 217.74 166.65 218.69 166.38
  C 219.02 166.29 219.29 166.09 219.49 165.80
  L 225.29 157.27
  C 225.53 156.91 225.36 156.42 224.94 156.29
  C 220.35 154.88 216.04 153.58 211.99 152.37
  C 211.21 152.14 210.40 152.13 209.57 152.34
  C 177.72 160.34 145.93 178.60 132.77 210.10
  C 126.10 226.07 124.92 245.21 132.45 260.82
  C 138.16 272.67 147.63 278.86 160.28 278.97
  C 162.13 278.98 164.00 279.07 165.89 279.24
  C 155.18 281.79 142.28 278.90 134.60 270.38
  C 121.82 256.19 120.67 233.12 125.77 215.46
  C 130.92 197.64 140.89 182.85 155.69 171.09
  C 168.52 160.90 182.80 153.71 198.55 149.52
  C 200.18 149.09 200.18 148.65 198.56 148.20
  C 191.99 146.37 185.81 144.51 180.03 142.62
  C 179.02 142.29 178.04 142.36 177.08 142.85
  C 148.75 157.13 126.31 180.21 118.91 211.02
  C 113.76 232.43 116.29 258.34 132.61 274.02
  C 135.15 276.46 138.93 278.98 142.30 280.09
  C 160.47 286.07 174.90 281.45 185.61 266.23
  C 186.06 265.60 186.40 264.92 186.63 264.19
  C 186.82 263.59 186.72 263.53 186.31 264.02
  C 184.48 266.23 182.47 268.14 180.29 269.74
  C 171.34 276.30 156.60 274.74 149.96 265.53
  C 141.60 253.93 143.82 237.90 150.55 225.78
  C 160.62 207.67 180.09 197.30 200.43 192.38
  C 201.25 192.18 201.96 191.68 202.43 190.99
  L 213.45 174.74
  C 214.02 173.90 213.80 173.59 212.81 173.81
  C 182.03 180.73 147.30 198.63 139.53 232.31
  C 136.82 244.03 138.03 257.34 145.36 266.85
  C 150.63 273.68 157.57 275.88 166.08 276.68
  Z
  M 337.15 221.86
  L 340.70 215.45
  C 340.83 215.21 340.76 214.92 340.53 214.77
  C 336.10 211.99 331.08 210.69 325.48 210.87
  C 317.53 211.12 309.72 216.00 310.61 224.82
  C 310.95 228.11 312.76 230.46 316.05 231.88
  C 318.74 233.04 321.68 234.07 324.87 234.98
  C 326.21 235.36 327.34 236.02 328.26 236.95
  C 330.48 239.21 328.34 242.25 325.73 242.87
  C 320.30 244.17 313.86 241.16 310.06 237.56
  C 309.97 237.48 309.83 237.50 309.77 237.60
  L 305.80 244.39
  C 305.71 244.54 305.74 244.67 305.88 244.78
  C 312.59 250.06 319.88 251.82 327.75 250.07
  C 332.80 248.95 337.30 245.51 338.31 240.15
  C 339.39 234.40 337.12 230.52 331.50 228.49
  C 328.49 227.40 325.53 226.30 322.62 225.21
  C 318.59 223.69 319.47 219.04 323.54 218.51
  C 327.31 218.02 331.60 219.21 336.41 222.06
  C 336.72 222.25 336.97 222.18 337.15 221.86
  Z
  M 451.92 242.34
  C 446.55 244.97 439.05 241.40 434.97 237.55
  C 434.86 237.45 434.69 237.47 434.62 237.59
  L 430.61 244.40
  C 430.54 244.53 430.56 244.65 430.68 244.74
  C 437.65 250.27 445.23 251.97 453.42 249.82
  C 458.15 248.58 462.28 245.03 463.15 240.03
  C 464.98 229.60 455.49 228.15 448.24 225.61
  C 446.46 224.99 444.20 223.34 444.98 221.14
  C 447.01 215.38 457.87 219.90 461.32 222.18
  C 461.50 222.29 461.74 222.23 461.84 222.05
  L 465.57 215.51
  C 465.74 215.22 465.68 214.99 465.40 214.82
  C 461.23 212.24 456.75 210.91 451.96 210.84
  C 443.71 210.71 435.05 214.76 435.40 224.03
  C 435.55 228.06 437.69 230.82 441.82 232.31
  C 444.69 233.34 447.67 234.38 450.78 235.45
  C 453.21 236.28 454.23 237.76 453.83 239.87
  C 453.61 241.00 452.97 241.82 451.92 242.34
  Z
  M 245.0398 219.8240
  C 239.51 210.59 226.78 208.04 216.5911 214.1363
  C 206.41 220.23 202.63 232.66 208.1602 241.8960
  C 213.69 251.13 226.42 253.68 236.6089 247.5837
  C 246.79 241.49 250.57 229.06 245.0398 219.8240
  Z
  M 276.74 241.38
  C 273.65 243.08 270.42 243.54 267.07 242.76
  C 258.04 240.65 256.55 229.01 262.48 222.98
  C 266.95 218.45 272.21 217.41 278.28 219.88
  C 279.60 220.42 280.75 221.20 281.73 222.23
  C 282.22 222.74 282.70 222.73 283.17 222.21
  L 287.44 217.46
  C 287.91 216.94 287.81 216.12 287.23 215.73
  C 278.65 209.88 270.02 209.30 261.35 214.01
  C 251.42 219.40 246.28 232.25 252.70 242.48
  C 259.51 253.35 273.22 252.16 282.97 246.49
  C 283.69 246.07 284.13 245.47 284.30 244.69
  C 285.23 240.30 286.12 235.72 286.99 230.97
  C 287.02 230.82 286.90 230.69 286.75 230.69
  L 279.75 230.70
  C 279.55 230.70 279.43 230.80 279.40 230.99
  L 277.72 240.01
  C 277.61 240.59 277.25 241.10 276.74 241.38
  Z
  M 410.96 219.70
  C 416.36 217.43 421.12 218.57 425.24 223.12
  C 425.54 223.45 425.84 223.45 426.14 223.12
  L 430.84 217.90
  C 431.18 217.53 431.17 217.16 430.81 216.81
  C 421.10 207.23 405.72 210.00 397.98 220.33
  C 391.46 229.04 392.99 242.82 402.86 248.36
  C 410.98 252.91 421.49 250.61 428.32 244.15
  C 428.53 243.95 428.56 243.62 428.37 243.39
  L 424.52 238.69
  C 424.27 238.40 424.00 238.37 423.71 238.61
  C 420.86 240.94 417.99 242.30 415.12 242.71
  C 410.38 243.38 405.88 241.06 404.03 236.55
  C 401.34 229.99 404.57 222.39 410.96 219.70
  Z
  M 200.63 243.05
  C 200.68 242.76 200.46 242.49 200.16 242.49
  L 184.86 242.51
  C 184.57 242.51 184.34 242.24 184.40 241.95
  L 190.40 212.07
  C 190.46 211.78 190.23 211.51 189.93 211.51
  L 182.12 211.53
  C 181.90 211.53 181.71 211.69 181.66 211.91
  L 174.07 249.68
  C 174.01 249.97 174.24 250.24 174.53 250.24
  L 198.91 250.23
  C 199.14 250.23 199.33 250.07 199.37 249.85
  L 200.63 243.05
  Z
  M 290.54 249.60
  C 290.47 249.92 290.72 250.23 291.06 250.23
  L 298.76 250.23
  C 299.01 250.23 299.23 250.05 299.28 249.80
  L 306.84 212.14
  C 306.91 211.81 306.66 211.50 306.32 211.50
  L 298.59 211.52
  C 298.34 211.52 298.12 211.70 298.07 211.94
  L 290.54 249.60
  Z
  M 356.03 218.94
  C 356.32 218.94 356.54 219.21 356.48 219.49
  L 350.36 249.68
  C 350.30 249.96 350.52 250.23 350.81 250.23
  L 358.62 250.23
  C 358.84 250.23 359.03 250.08 359.07 249.86
  L 365.27 219.32
  C 365.31 219.10 365.50 218.95 365.72 218.95
  L 376.75 218.98
  C 376.97 218.98 377.16 218.83 377.20 218.61
  L 378.53 212.06
  C 378.59 211.78 378.37 211.51 378.08 211.51
  L 346.59 211.52
  C 346.37 211.52 346.18 211.68 346.14 211.90
  L 344.94 218.43
  C 344.89 218.71 345.11 218.97 345.39 218.97
  L 356.03 218.94
  Z
  M 391.93 211.96
  C 391.97 211.72 391.79 211.49 391.54 211.49
  L 383.55 211.55
  C 383.36 211.55 383.20 211.68 383.17 211.86
  L 375.58 249.77
  C 375.54 250.01 375.72 250.24 375.97 250.24
  L 383.96 250.23
  C 384.15 250.23 384.31 250.10 384.34 249.92
  L 391.93 211.96
  Z
  M 330.07 262.21
  L 329.06 259.87
  C 328.81 259.28 328.37 259.05 327.74 259.16
  L 327.26 259.25
  C 326.98 259.30 326.83 259.60 326.95 259.86
  C 328.22 262.49 328.84 264.91 328.81 267.14
  C 328.80 267.35 328.85 267.54 328.96 267.72
  C 329.11 267.97 329.32 268.10 329.60 268.10
  C 330.02 268.10 330.29 267.90 330.41 267.50
  C 331.18 264.98 332.54 262.57 334.49 260.27
  C 334.72 260.01 334.73 259.62 334.53 259.34
  C 334.24 258.93 333.77 258.97 333.11 259.44
  C 332.79 259.67 332.52 259.94 332.29 260.25
  L 330.79 262.29
  C 330.50 262.69 330.26 262.66 330.07 262.21
  Z
  M 428.9276 260.3862
  C 429.05 259.83 428.70 259.27 428.1374 259.1458
  L 428.0593 259.1285
  C 427.50 259.00 426.94 259.36 426.8188 259.9187
  L 425.3124 266.7138
  C 425.19 267.27 425.54 267.83 426.1026 267.9542
  L 426.1807 267.9715
  C 426.74 268.10 427.30 267.74 427.4212 267.1813
  L 428.9276 260.3862
  Z
  M 218.31 261.19
  C 219.10 261.50 219.89 261.67 220.70 261.71
  C 221.15 261.73 221.50 261.31 221.39 260.87
  C 221.25 260.32 220.90 259.94 220.35 259.73
  C 212.76 256.73 210.81 268.77 218.07 267.80
  C 218.96 267.68 219.66 267.37 220.16 266.86
  C 221.25 265.75 221.03 265.30 219.49 265.49
  C 219.02 265.54 218.55 265.65 218.10 265.80
  C 216.79 266.24 215.49 265.14 215.70 263.77
  C 215.87 262.65 216.37 261.83 217.19 261.30
  C 217.54 261.07 217.92 261.03 218.31 261.19
  Z
  M 239.8807 261.1033
  C 238.65 259.13 235.90 258.63 233.7306 259.9843
  C 231.56 261.34 230.79 264.03 232.0193 265.9967
  C 233.25 267.97 236.00 268.47 238.1694 267.1157
  C 240.34 265.76 241.11 263.07 239.8807 261.1033
  Z
  M 253.84 263.55
  L 254.19 265.31
  C 254.60 267.40 255.45 267.59 256.73 265.89
  C 257.16 265.32 257.54 264.71 257.87 264.06
  C 258.38 263.05 258.64 263.11 258.63 264.24
  C 258.62 264.77 258.48 265.75 258.21 267.17
  C 258.10 267.73 258.33 268.04 258.90 268.10
  L 259.21 268.14
  C 259.50 268.17 259.77 267.98 259.83 267.69
  L 261.48 260.37
  C 261.55 260.02 261.45 259.75 261.16 259.54
  C 260.30 258.94 259.09 259.35 258.54 260.18
  C 257.71 261.43 256.90 262.64 256.11 263.81
  C 255.95 264.05 255.57 263.99 255.50 263.71
  L 254.59 260.27
  C 254.50 259.92 254.30 259.65 253.98 259.48
  C 253.59 259.26 253.17 259.20 252.71 259.29
  C 252.23 259.39 251.85 259.77 251.76 260.25
  L 250.52 266.96
  C 250.42 267.51 250.65 267.80 251.20 267.85
  L 251.47 267.88
  C 251.99 267.92 252.44 267.53 252.46 267.01
  C 252.51 265.80 252.74 264.63 253.13 263.50
  C 253.43 262.64 253.67 262.66 253.84 263.55
  Z
  M 274.20 265.47
  C 275.07 265.43 275.94 265.31 276.82 265.12
  C 279.03 264.63 279.82 262.27 278.81 260.35
  C 278.58 259.92 278.22 259.64 277.73 259.53
  C 276.26 259.19 274.76 259.20 273.21 259.55
  C 272.88 259.63 272.69 259.84 272.62 260.17
  L 271.26 267.01
  C 271.12 267.73 271.94 268.24 272.52 267.80
  C 273.06 267.39 273.40 266.80 273.54 266.05
  C 273.61 265.68 273.83 265.48 274.20 265.47
  Z
  M 293.94 266.61
  C 294.28 267.30 294.84 267.68 295.63 267.75
  C 296.33 267.82 296.60 267.51 296.43 266.83
  L 294.87 260.36
  C 294.54 259.02 292.76 258.76 292.05 259.94
  L 288.03 266.62
  C 287.52 267.47 287.76 267.89 288.75 267.88
  C 289.24 267.87 289.59 267.63 289.80 267.16
  C 290.00 266.70 290.44 266.38 290.95 266.33
  L 293.07 266.12
  C 293.48 266.08 293.77 266.24 293.94 266.61
  Z
  M 312.86 263.39
  L 311.33 260.72
  C 309.97 258.33 308.98 258.48 308.35 261.15
  C 308.00 262.68 307.71 264.20 307.50 265.73
  C 307.10 268.71 307.71 268.98 309.33 266.54
  C 309.56 266.19 309.71 265.43 309.78 264.26
  C 309.85 263.18 310.17 263.10 310.74 264.02
  C 311.49 265.22 312.44 267.75 313.97 267.92
  C 314.40 267.97 314.79 267.68 314.88 267.26
  L 316.31 260.33
  C 316.38 259.99 316.23 259.64 315.93 259.46
  C 315.74 259.35 315.53 259.29 315.32 259.29
  C 314.74 259.28 314.39 259.56 314.28 260.13
  L 313.66 263.26
  C 313.51 264.03 313.24 264.07 312.86 263.39
  Z
  M 361.72 261.24
  C 362.31 261.17 362.91 261.03 363.50 260.80
  C 363.90 260.65 364.07 260.36 364.00 259.92
  C 363.94 259.55 363.72 259.37 363.35 259.37
  L 356.82 259.44
  C 356.36 259.45 356.13 260.00 356.45 260.34
  C 356.92 260.84 357.51 261.12 358.21 261.19
  C 358.59 261.23 358.86 261.58 358.79 261.95
  L 357.83 267.15
  C 357.77 267.48 358.00 267.80 358.34 267.84
  L 358.83 267.91
  C 359.42 267.99 359.77 267.74 359.90 267.16
  L 360.99 261.91
  C 361.07 261.51 361.31 261.29 361.72 261.24
  Z
  M 375.58 266.03
  C 376.95 266.02 377.92 266.52 378.49 267.51
  C 378.78 268.00 379.18 268.09 379.71 267.80
  C 380.02 267.63 380.19 267.27 380.11 266.92
  L 378.61 260.49
  C 378.27 259.02 376.30 258.74 375.56 260.05
  C 374.34 262.22 373.14 264.27 371.97 266.22
  C 371.06 267.72 371.43 268.18 373.09 267.59
  C 373.22 267.54 373.33 267.44 373.41 267.31
  C 373.88 266.46 374.61 266.03 375.58 266.03
  Z
  M 395.95 265.94
  C 395.12 266.09 394.33 265.95 393.59 265.50
  C 393.24 265.29 393.01 264.93 392.98 264.53
  C 392.72 261.52 395.27 260.40 397.70 261.59
  C 398.09 261.78 398.42 261.70 398.67 261.35
  C 398.82 261.13 398.86 260.89 398.81 260.63
  C 398.74 260.26 398.53 259.99 398.20 259.82
  C 395.30 258.34 391.86 259.72 390.92 262.88
  C 389.27 268.40 398.94 270.22 398.70 263.94
  C 398.68 263.55 398.48 263.38 398.09 263.44
  C 397.12 263.59 396.63 264.16 396.62 265.14
  C 396.62 265.53 396.34 265.87 395.95 265.94
  Z
  M 411.55 265.24
  L 412.59 260.48
  C 412.72 259.86 412.49 259.45 411.88 259.25
  C 411.61 259.16 411.33 259.16 411.04 259.24
  C 410.69 259.33 410.43 259.61 410.37 259.96
  L 409.07 267.31
  C 409.02 267.61 409.25 267.88 409.55 267.87
  L 414.20 267.73
  C 414.71 267.71 414.98 267.44 415.00 266.93
  L 415.01 266.51
  C 415.02 266.00 414.77 265.77 414.26 265.82
  L 412.25 266.02
  C 411.66 266.08 411.42 265.82 411.55 265.24
  Z
  M 442.27 264.01
  L 443.55 266.12
  C 445.08 268.66 446.14 268.48 446.72 265.57
  L 447.77 260.29
  C 447.83 260.00 447.73 259.70 447.51 259.50
  C 447.20 259.23 446.90 259.13 446.61 259.20
  C 446.15 259.31 445.89 259.60 445.82 260.07
  C 445.65 261.24 445.39 262.34 445.06 263.38
  C 444.85 264.03 444.60 264.05 444.32 263.42
  C 443.75 262.15 443.13 260.98 442.44 259.93
  C 442.13 259.45 441.68 259.23 441.10 259.26
  C 440.64 259.28 440.25 259.61 440.16 260.06
  C 439.65 262.36 439.19 264.62 438.78 266.83
  C 438.67 267.39 438.89 267.76 439.42 267.93
  C 439.90 268.09 440.24 267.94 440.45 267.49
  C 440.89 266.53 441.16 265.45 441.27 264.24
  C 441.36 263.13 441.70 263.06 442.27 264.01
  Z
  M 461.73 262.81
  C 460.00 261.74 460.15 261.14 462.18 261.00
  C 462.78 260.96 463.66 260.96 464.83 261.01
  C 465.31 261.03 465.61 260.81 465.72 260.34
  L 465.79 260.01
  C 465.86 259.73 465.66 259.45 465.37 259.42
  C 463.66 259.23 461.88 259.21 460.01 259.37
  C 459.47 259.42 459.14 259.70 459.03 260.23
  L 457.76 266.23
  C 457.55 267.22 457.96 267.73 458.98 267.74
  L 463.62 267.79
  C 464.06 267.80 464.40 267.43 464.37 267.00
  L 464.35 266.68
  C 464.33 266.33 464.03 266.06 463.68 266.07
  C 462.65 266.10 461.83 266.07 461.20 266.00
  C 459.38 265.77 459.28 265.25 460.89 264.42
  C 461.50 264.11 462.27 264.10 463.22 264.39
  C 463.59 264.50 463.91 264.41 464.18 264.14
  C 464.43 263.89 464.53 263.60 464.48 263.25
  C 464.43 262.86 464.05 262.60 463.67 262.69
  C 462.64 262.93 462.00 262.97 461.73 262.81
  Z"
/>
<path fill="#083c5e" d="
  M 165.89 279.24
  C 169.06 278.57 172.01 277.22 174.76 275.18
  C 175.21 274.85 175.15 274.70 174.59 274.73
  C 173.63 274.79 172.70 275.09 171.81 275.62
  C 171.53 275.79 171.23 275.89 170.91 275.94
  L 166.08 276.68
  C 157.57 275.88 150.63 273.68 145.36 266.85
  C 138.03 257.34 136.82 244.03 139.53 232.31
  C 147.30 198.63 182.03 180.73 212.81 173.81
  C 213.80 173.59 214.02 173.90 213.45 174.74
  L 202.43 190.99
  C 201.96 191.68 201.25 192.18 200.43 192.38
  C 180.09 197.30 160.62 207.67 150.55 225.78
  C 143.82 237.90 141.60 253.93 149.96 265.53
  C 156.60 274.74 171.34 276.30 180.29 269.74
  C 182.47 268.14 184.48 266.23 186.31 264.02
  C 186.72 263.53 186.82 263.59 186.63 264.19
  C 186.40 264.92 186.06 265.60 185.61 266.23
  C 174.90 281.45 160.47 286.07 142.30 280.09
  C 138.93 278.98 135.15 276.46 132.61 274.02
  C 116.29 258.34 113.76 232.43 118.91 211.02
  C 126.31 180.21 148.75 157.13 177.08 142.85
  C 178.04 142.36 179.02 142.29 180.03 142.62
  C 185.81 144.51 191.99 146.37 198.56 148.20
  C 200.18 148.65 200.18 149.09 198.55 149.52
  C 182.80 153.71 168.52 160.90 155.69 171.09
  C 140.89 182.85 130.92 197.64 125.77 215.46
  C 120.67 233.12 121.82 256.19 134.60 270.38
  C 142.28 278.90 155.18 281.79 165.89 279.24
  Z"
/>
<path fill="#0c9dd8" d="
  M 166.08 276.68
  L 170.91 275.94
  C 171.23 275.89 171.53 275.79 171.81 275.62
  C 172.70 275.09 173.63 274.79 174.59 274.73
  C 175.15 274.70 175.21 274.85 174.76 275.18
  C 172.01 277.22 169.06 278.57 165.89 279.24
  C 164.00 279.07 162.13 278.98 160.28 278.97
  C 147.63 278.86 138.16 272.67 132.45 260.82
  C 124.92 245.21 126.10 226.07 132.77 210.10
  C 145.93 178.60 177.72 160.34 209.57 152.34
  C 210.40 152.13 211.21 152.14 211.99 152.37
  C 216.04 153.58 220.35 154.88 224.94 156.29
  C 225.36 156.42 225.53 156.91 225.29 157.27
  L 219.49 165.80
  C 219.29 166.09 219.02 166.29 218.69 166.38
  C 217.74 166.65 216.77 166.87 215.79 167.03
  C 190.93 170.97 166.76 180.58 150.47 199.21
  C 140.58 210.53 135.03 223.33 133.84 237.60
  C 132.63 252.03 137.91 270.16 153.24 275.25
  C 157.54 276.68 161.82 277.15 166.08 276.68
  Z"
/>
<path fill="#083c5e" d="
  M 336.41 222.06
  C 331.60 219.21 327.31 218.02 323.54 218.51
  C 319.47 219.04 318.59 223.69 322.62 225.21
  C 325.53 226.30 328.49 227.40 331.50 228.49
  C 337.12 230.52 339.39 234.40 338.31 240.15
  C 337.30 245.51 332.80 248.95 327.75 250.07
  C 319.88 251.82 312.59 250.06 305.88 244.78
  C 305.74 244.67 305.71 244.54 305.80 244.39
  L 309.77 237.60
  C 309.83 237.50 309.97 237.48 310.06 237.56
  C 313.86 241.16 320.30 244.17 325.73 242.87
  C 328.34 242.25 330.48 239.21 328.26 236.95
  C 327.34 236.02 326.21 235.36 324.87 234.98
  C 321.68 234.07 318.74 233.04 316.05 231.88
  C 312.76 230.46 310.95 228.11 310.61 224.82
  C 309.72 216.00 317.53 211.12 325.48 210.87
  C 331.08 210.69 336.10 211.99 340.53 214.77
  C 340.76 214.92 340.83 215.21 340.70 215.45
  L 337.15 221.86
  C 336.97 222.18 336.72 222.25 336.41 222.06
  Z"
/>
<path fill="#083c5e" d="
  M 453.83 239.87
  C 454.23 237.76 453.21 236.28 450.78 235.45
  C 447.67 234.38 444.69 233.34 441.82 232.31
  C 437.69 230.82 435.55 228.06 435.40 224.03
  C 435.05 214.76 443.71 210.71 451.96 210.84
  C 456.75 210.91 461.23 212.24 465.40 214.82
  C 465.68 214.99 465.74 215.22 465.57 215.51
  L 461.84 222.05
  C 461.74 222.23 461.50 222.29 461.32 222.18
  C 457.87 219.90 447.01 215.38 444.98 221.14
  C 444.20 223.34 446.46 224.99 448.24 225.61
  C 455.49 228.15 464.98 229.60 463.15 240.03
  C 462.28 245.03 458.15 248.58 453.42 249.82
  C 445.23 251.97 437.65 250.27 430.68 244.74
  C 430.56 244.65 430.54 244.53 430.61 244.40
  L 434.62 237.59
  C 434.69 237.47 434.86 237.45 434.97 237.55
  C 439.05 241.40 446.55 244.97 451.92 242.34
  C 452.97 241.82 453.61 241.00 453.83 239.87
  Z"
/>
<path fill="#083c5e" d="
  M 245.0398 219.8240
  C 250.57 229.06 246.79 241.49 236.6089 247.5837
  C 226.42 253.68 213.69 251.13 208.1602 241.8960
  C 202.63 232.66 206.41 220.23 216.5911 214.1363
  C 226.78 208.04 239.51 210.59 245.0398 219.8240
  Z
  M 219.3008 241.2114
  C 224.48 244.87 231.95 243.19 235.9908 237.4674
  C 240.03 231.75 239.10 224.14 233.9192 220.4886
  C 228.74 216.83 221.27 218.51 217.2292 224.2326
  C 213.19 229.95 214.12 237.56 219.3008 241.2114
  Z"
/>
<path fill="#083c5e" d="
  M 276.74 241.38
  C 277.25 241.10 277.61 240.59 277.72 240.01
  L 279.40 230.99
  C 279.43 230.80 279.55 230.70 279.75 230.70
  L 286.75 230.69
  C 286.90 230.69 287.02 230.82 286.99 230.97
  C 286.12 235.72 285.23 240.30 284.30 244.69
  C 284.13 245.47 283.69 246.07 282.97 246.49
  C 273.22 252.16 259.51 253.35 252.70 242.48
  C 246.28 232.25 251.42 219.40 261.35 214.01
  C 270.02 209.30 278.65 209.88 287.23 215.73
  C 287.81 216.12 287.91 216.94 287.44 217.46
  L 283.17 222.21
  C 282.70 222.73 282.22 222.74 281.73 222.23
  C 280.75 221.20 279.60 220.42 278.28 219.88
  C 272.21 217.41 266.95 218.45 262.48 222.98
  C 256.55 229.01 258.04 240.65 267.07 242.76
  C 270.42 243.54 273.65 243.08 276.74 241.38
  Z"
/>
<path fill="#083c5e" d="
  M 410.96 219.70
  C 404.57 222.39 401.34 229.99 404.03 236.55
  C 405.88 241.06 410.38 243.38 415.12 242.71
  C 417.99 242.30 420.86 240.94 423.71 238.61
  C 424.00 238.37 424.27 238.40 424.52 238.69
  L 428.37 243.39
  C 428.56 243.62 428.53 243.95 428.32 244.15
  C 421.49 250.61 410.98 252.91 402.86 248.36
  C 392.99 242.82 391.46 229.04 397.98 220.33
  C 405.72 210.00 421.10 207.23 430.81 216.81
  C 431.17 217.16 431.18 217.53 430.84 217.90
  L 426.14 223.12
  C 425.84 223.45 425.54 223.45 425.24 223.12
  C 421.12 218.57 416.36 217.43 410.96 219.70
  Z"
/>
<path fill="#083c5e" d="
  M 200.63 243.05
  L 199.37 249.85
  C 199.33 250.07 199.14 250.23 198.91 250.23
  L 174.53 250.24
  C 174.24 250.24 174.01 249.97 174.07 249.68
  L 181.66 211.91
  C 181.71 211.69 181.90 211.53 182.12 211.53
  L 189.93 211.51
  C 190.23 211.51 190.46 211.78 190.40 212.07
  L 184.40 241.95
  C 184.34 242.24 184.57 242.51 184.86 242.51
  L 200.16 242.49
  C 200.46 242.49 200.68 242.76 200.63 243.05
  Z"
/>
<path fill="#083c5e" d="
  M 290.54 249.60
  L 298.07 211.94
  C 298.12 211.70 298.34 211.52 298.59 211.52
  L 306.32 211.50
  C 306.66 211.50 306.91 211.81 306.84 212.14
  L 299.28 249.80
  C 299.23 250.05 299.01 250.23 298.76 250.23
  L 291.06 250.23
  C 290.72 250.23 290.47 249.92 290.54 249.60
  Z"
/>
<path fill="#083c5e" d="
  M 356.03 218.94
  L 345.39 218.97
  C 345.11 218.97 344.89 218.71 344.94 218.43
  L 346.14 211.90
  C 346.18 211.68 346.37 211.52 346.59 211.52
  L 378.08 211.51
  C 378.37 211.51 378.59 211.78 378.53 212.06
  L 377.20 218.61
  C 377.16 218.83 376.97 218.98 376.75 218.98
  L 365.72 218.95
  C 365.50 218.95 365.31 219.10 365.27 219.32
  L 359.07 249.86
  C 359.03 250.08 358.84 250.23 358.62 250.23
  L 350.81 250.23
  C 350.52 250.23 350.30 249.96 350.36 249.68
  L 356.48 219.49
  C 356.54 219.21 356.32 218.94 356.03 218.94
  Z"
/>
<path fill="#083c5e" d="
  M 391.93 211.96
  L 384.34 249.92
  C 384.31 250.10 384.15 250.23 383.96 250.23
  L 375.97 250.24
  C 375.72 250.24 375.54 250.01 375.58 249.77
  L 383.17 211.86
  C 383.20 211.68 383.36 211.55 383.55 211.55
  L 391.54 211.49
  C 391.79 211.49 391.97 211.72 391.93 211.96
  Z"
/>
<path fill="#ffffff" d="
  M 219.3008 241.2114
  C 214.12 237.56 213.19 229.95 217.2292 224.2326
  C 221.27 218.51 228.74 216.83 233.9192 220.4886
  C 239.10 224.14 240.03 231.75 235.9908 237.4674
  C 231.95 243.19 224.48 244.87 219.3008 241.2114
  Z"
/>
<path fill="#0c9dd8" d="
  M 330.79 262.29
  L 332.29 260.25
  C 332.52 259.94 332.79 259.67 333.11 259.44
  C 333.77 258.97 334.24 258.93 334.53 259.34
  C 334.73 259.62 334.72 260.01 334.49 260.27
  C 332.54 262.57 331.18 264.98 330.41 267.50
  C 330.29 267.90 330.02 268.10 329.60 268.10
  C 329.32 268.10 329.11 267.97 328.96 267.72
  C 328.85 267.54 328.80 267.35 328.81 267.14
  C 328.84 264.91 328.22 262.49 326.95 259.86
  C 326.83 259.60 326.98 259.30 327.26 259.25
  L 327.74 259.16
  C 328.37 259.05 328.81 259.28 329.06 259.87
  L 330.07 262.21
  C 330.26 262.66 330.50 262.69 330.79 262.29
  Z"
/>
<path fill="#0c9dd8" d="
  M 427.4212 267.1813
  C 427.30 267.74 426.74 268.10 426.1807 267.9715
  L 426.1026 267.9542
  C 425.54 267.83 425.19 267.27 425.3124 266.7138
  L 426.8188 259.9187
  C 426.94 259.36 427.50 259.00 428.0593 259.1285
  L 428.1374 259.1458
  C 428.70 259.27 429.05 259.83 428.9276 260.3862
  L 427.4212 267.1813
  Z"
/>
<path fill="#0c9dd8" d="
  M 217.19 261.30
  C 216.37 261.83 215.87 262.65 215.70 263.77
  C 215.49 265.14 216.79 266.24 218.10 265.80
  C 218.55 265.65 219.02 265.54 219.49 265.49
  C 221.03 265.30 221.25 265.75 220.16 266.86
  C 219.66 267.37 218.96 267.68 218.07 267.80
  C 210.81 268.77 212.76 256.73 220.35 259.73
  C 220.90 259.94 221.25 260.32 221.39 260.87
  C 221.50 261.31 221.15 261.73 220.70 261.71
  C 219.89 261.67 219.10 261.50 218.31 261.19
  C 217.92 261.03 217.54 261.07 217.19 261.30
  Z"
/>
<path fill="#0c9dd8" d="
  M 239.8807 261.1033
  C 241.11 263.07 240.34 265.76 238.1694 267.1157
  C 236.00 268.47 233.25 267.97 232.0193 265.9967
  C 230.79 264.03 231.56 261.34 233.7306 259.9843
  C 235.90 258.63 238.65 259.13 239.8807 261.1033
  Z
  M 234.5629 265.6978
  C 235.59 266.37 237.04 265.96 237.8097 264.7823
  C 238.58 263.61 238.36 262.11 237.3371 261.4422
  C 236.31 260.77 234.86 261.18 234.0903 262.3577
  C 233.32 263.53 233.54 265.03 234.5629 265.6978
  Z"
/>
<path fill="#0c9dd8" d="
  M 253.13 263.50
  C 252.74 264.63 252.51 265.80 252.46 267.01
  C 252.44 267.53 251.99 267.92 251.47 267.88
  L 251.20 267.85
  C 250.65 267.80 250.42 267.51 250.52 266.96
  L 251.76 260.25
  C 251.85 259.77 252.23 259.39 252.71 259.29
  C 253.17 259.20 253.59 259.26 253.98 259.48
  C 254.30 259.65 254.50 259.92 254.59 260.27
  L 255.50 263.71
  C 255.57 263.99 255.95 264.05 256.11 263.81
  C 256.90 262.64 257.71 261.43 258.54 260.18
  C 259.09 259.35 260.30 258.94 261.16 259.54
  C 261.45 259.75 261.55 260.02 261.48 260.37
  L 259.83 267.69
  C 259.77 267.98 259.50 268.17 259.21 268.14
  L 258.90 268.10
  C 258.33 268.04 258.10 267.73 258.21 267.17
  C 258.48 265.75 258.62 264.77 258.63 264.24
  C 258.64 263.11 258.38 263.05 257.87 264.06
  C 257.54 264.71 257.16 265.32 256.73 265.89
  C 255.45 267.59 254.60 267.40 254.19 265.31
  L 253.84 263.55
  C 253.67 262.66 253.43 262.64 253.13 263.50
  Z"
/>
<path fill="#0c9dd8" d="
  M 273.54 266.05
  C 273.40 266.80 273.06 267.39 272.52 267.80
  C 271.94 268.24 271.12 267.73 271.26 267.01
  L 272.62 260.17
  C 272.69 259.84 272.88 259.63 273.21 259.55
  C 274.76 259.20 276.26 259.19 277.73 259.53
  C 278.22 259.64 278.58 259.92 278.81 260.35
  C 279.82 262.27 279.03 264.63 276.82 265.12
  C 275.94 265.31 275.07 265.43 274.20 265.47
  C 273.83 265.48 273.61 265.68 273.54 266.05
  Z
  M 277.08 261.69
  C 276.97 261.08 276.35 260.71 275.75 260.89
  C 274.69 261.22 274.16 261.91 274.17 262.97
  C 274.17 263.52 274.45 263.78 275.00 263.74
  C 276.61 263.63 277.31 262.94 277.08 261.69
  Z"
/>
<path fill="#0c9dd8" d="
  M 293.07 266.12
  L 290.95 266.33
  C 290.44 266.38 290.00 266.70 289.80 267.16
  C 289.59 267.63 289.24 267.87 288.75 267.88
  C 287.76 267.89 287.52 267.47 288.03 266.62
  L 292.05 259.94
  C 292.76 258.76 294.54 259.02 294.87 260.36
  L 296.43 266.83
  C 296.60 267.51 296.33 267.82 295.63 267.75
  C 294.84 267.68 294.28 267.30 293.94 266.61
  C 293.77 266.24 293.48 266.08 293.07 266.12
  Z
  M 292.15 264.73
  C 292.79 265.18 293.66 264.67 293.57 263.89
  L 293.45 262.73
  C 293.41 262.36 292.96 262.19 292.68 262.45
  C 291.59 263.45 291.42 264.21 292.15 264.73
  Z"
/>
<path fill="#0c9dd8" d="
  M 313.66 263.26
  L 314.28 260.13
  C 314.39 259.56 314.74 259.28 315.32 259.29
  C 315.53 259.29 315.74 259.35 315.93 259.46
  C 316.23 259.64 316.38 259.99 316.31 260.33
  L 314.88 267.26
  C 314.79 267.68 314.40 267.97 313.97 267.92
  C 312.44 267.75 311.49 265.22 310.74 264.02
  C 310.17 263.10 309.85 263.18 309.78 264.26
  C 309.71 265.43 309.56 266.19 309.33 266.54
  C 307.71 268.98 307.10 268.71 307.50 265.73
  C 307.71 264.20 308.00 262.68 308.35 261.15
  C 308.98 258.48 309.97 258.33 311.33 260.72
  L 312.86 263.39
  C 313.24 264.07 313.51 264.03 313.66 263.26
  Z"
/>
<path fill="#0c9dd8" d="
  M 360.99 261.91
  L 359.90 267.16
  C 359.77 267.74 359.42 267.99 358.83 267.91
  L 358.34 267.84
  C 358.00 267.80 357.77 267.48 357.83 267.15
  L 358.79 261.95
  C 358.86 261.58 358.59 261.23 358.21 261.19
  C 357.51 261.12 356.92 260.84 356.45 260.34
  C 356.13 260.00 356.36 259.45 356.82 259.44
  L 363.35 259.37
  C 363.72 259.37 363.94 259.55 364.00 259.92
  C 364.07 260.36 363.90 260.65 363.50 260.80
  C 362.91 261.03 362.31 261.17 361.72 261.24
  C 361.31 261.29 361.07 261.51 360.99 261.91
  Z"
/>
<path fill="#0c9dd8" d="
  M 375.58 266.03
  C 374.61 266.03 373.88 266.46 373.41 267.31
  C 373.33 267.44 373.22 267.54 373.09 267.59
  C 371.43 268.18 371.06 267.72 371.97 266.22
  C 373.14 264.27 374.34 262.22 375.56 260.05
  C 376.30 258.74 378.27 259.02 378.61 260.49
  L 380.11 266.92
  C 380.19 267.27 380.02 267.63 379.71 267.80
  C 379.18 268.09 378.78 268.00 378.49 267.51
  C 377.92 266.52 376.95 266.02 375.58 266.03
  Z
  M 375.34 264.12
  C 375.25 264.36 375.39 264.62 375.64 264.68
  C 376.03 264.77 376.40 264.76 376.76 264.65
  C 377.04 264.57 377.22 264.28 377.16 263.99
  L 376.89 262.60
  C 376.76 261.91 376.51 261.87 376.15 262.47
  C 375.84 262.98 375.57 263.53 375.34 264.12
  Z"
/>
<path fill="#0c9dd8" d="
  M 396.62 265.14
  C 396.63 264.16 397.12 263.59 398.09 263.44
  C 398.48 263.38 398.68 263.55 398.70 263.94
  C 398.94 270.22 389.27 268.40 390.92 262.88
  C 391.86 259.72 395.30 258.34 398.20 259.82
  C 398.53 259.99 398.74 260.26 398.81 260.63
  C 398.86 260.89 398.82 261.13 398.67 261.35
  C 398.42 261.70 398.09 261.78 397.70 261.59
  C 395.27 260.40 392.72 261.52 392.98 264.53
  C 393.01 264.93 393.24 265.29 393.59 265.50
  C 394.33 265.95 395.12 266.09 395.95 265.94
  C 396.34 265.87 396.62 265.53 396.62 265.14
  Z"
/>
<path fill="#0c9dd8" d="
  M 412.25 266.02
  L 414.26 265.82
  C 414.77 265.77 415.02 266.00 415.01 266.51
  L 415.00 266.93
  C 414.98 267.44 414.71 267.71 414.20 267.73
  L 409.55 267.87
  C 409.25 267.88 409.02 267.61 409.07 267.31
  L 410.37 259.96
  C 410.43 259.61 410.69 259.33 411.04 259.24
  C 411.33 259.16 411.61 259.16 411.88 259.25
  C 412.49 259.45 412.72 259.86 412.59 260.48
  L 411.55 265.24
  C 411.42 265.82 411.66 266.08 412.25 266.02
  Z"
/>
<path fill="#0c9dd8" d="
  M 442.27 264.01
  C 441.70 263.06 441.36 263.13 441.27 264.24
  C 441.16 265.45 440.89 266.53 440.45 267.49
  C 440.24 267.94 439.90 268.09 439.42 267.93
  C 438.89 267.76 438.67 267.39 438.78 266.83
  C 439.19 264.62 439.65 262.36 440.16 260.06
  C 440.25 259.61 440.64 259.28 441.10 259.26
  C 441.68 259.23 442.13 259.45 442.44 259.93
  C 443.13 260.98 443.75 262.15 444.32 263.42
  C 444.60 264.05 444.85 264.03 445.06 263.38
  C 445.39 262.34 445.65 261.24 445.82 260.07
  C 445.89 259.60 446.15 259.31 446.61 259.20
  C 446.90 259.13 447.20 259.23 447.51 259.50
  C 447.73 259.70 447.83 260.00 447.77 260.29
  L 446.72 265.57
  C 446.14 268.48 445.08 268.66 443.55 266.12
  L 442.27 264.01
  Z"
/>
<path fill="#0c9dd8" d="
  M 461.73 262.81
  C 462.00 262.97 462.64 262.93 463.67 262.69
  C 464.05 262.60 464.43 262.86 464.48 263.25
  C 464.53 263.60 464.43 263.89 464.18 264.14
  C 463.91 264.41 463.59 264.50 463.22 264.39
  C 462.27 264.10 461.50 264.11 460.89 264.42
  C 459.28 265.25 459.38 265.77 461.20 266.00
  C 461.83 266.07 462.65 266.10 463.68 266.07
  C 464.03 266.06 464.33 266.33 464.35 266.68
  L 464.37 267.00
  C 464.40 267.43 464.06 267.80 463.62 267.79
  L 458.98 267.74
  C 457.96 267.73 457.55 267.22 457.76 266.23
  L 459.03 260.23
  C 459.14 259.70 459.47 259.42 460.01 259.37
  C 461.88 259.21 463.66 259.23 465.37 259.42
  C 465.66 259.45 465.86 259.73 465.79 260.01
  L 465.72 260.34
  C 465.61 260.81 465.31 261.03 464.83 261.01
  C 463.66 260.96 462.78 260.96 462.18 261.00
  C 460.15 261.14 460.00 261.74 461.73 262.81
  Z"
/>
<path fill="#ffffff" d="
  M 234.5629 265.6978
  C 233.54 265.03 233.32 263.53 234.0903 262.3577
  C 234.86 261.18 236.31 260.77 237.3371 261.4422
  C 238.36 262.11 238.58 263.61 237.8097 264.7823
  C 237.04 265.96 235.59 266.37 234.5629 265.6978
  Z"
/>
<path fill="#ffffff" d="
  M 277.08 261.69
  C 277.31 262.94 276.61 263.63 275.00 263.74
  C 274.45 263.78 274.17 263.52 274.17 262.97
  C 274.16 261.91 274.69 261.22 275.75 260.89
  C 276.35 260.71 276.97 261.08 277.08 261.69
  Z"
/>
<path fill="#ffffff" d="
  M 375.34 264.12
  C 375.57 263.53 375.84 262.98 376.15 262.47
  C 376.51 261.87 376.76 261.91 376.89 262.60
  L 377.16 263.99
  C 377.22 264.28 377.04 264.57 376.76 264.65
  C 376.40 264.76 376.03 264.77 375.64 264.68
  C 375.39 264.62 375.25 264.36 375.34 264.12
  Z"
/>
<path fill="#ffffff" d="
  M 292.15 264.73
  C 291.42 264.21 291.59 263.45 292.68 262.45
  C 292.96 262.19 293.41 262.36 293.45 262.73
  L 293.57 263.89
  C 293.66 264.67 292.79 265.18 292.15 264.73
  Z"
/>
</svg>
