<?xml version="1.0" encoding="UTF-8" standalone="no"?>
<!DOCTYPE svg PUBLIC "-//W3C//DTD SVG 1.0//EN" "http://www.w3.org/TR/2001/REC-SVG-20010904/DTD/svg10.dtd">
<svg xmlns="http://www.w3.org/2000/svg" version="1.0" viewBox="0.00 0.00 512.00 512.00" width="512.00" height="512.00">
<path fill="#000000" d="
  M 163.78 0.00
  L 166.35 0.00
  C 177.82 2.91 189.29 5.84 200.75 8.77
  C 203.84 9.56 206.07 11.48 207.46 14.55
  C 209.22 18.44 208.04 22.05 205.79 25.44
  C 199.58 34.81 193.64 43.83 187.98 52.49
  C 182.14 61.43 168.19 56.35 169.68 45.61
  C 170.09 42.59 172.48 39.69 174.12 37.15
  C 174.55 36.48 174.39 36.30 173.66 36.59
  C 123.57 56.16 84.40 88.45 56.17 133.47
  C 33.84 169.08 22.18 210.65 21.61 252.53
  C 21.56 255.92 21.31 258.25 20.85 259.52
  C 17.87 267.80 5.97 268.11 2.43 260.11
  C 1.78 258.65 1.48 256.39 1.53 253.33
  C 2.00 221.64 7.76 191.73 18.81 163.62
  C 44.64 97.96 96.05 46.74 161.51 19.92
  C 162.02 19.71 162.02 19.49 161.51 19.27
  C 151.58 15.08 153.84 2.01 163.78 0.00
  Z"
/>
<path fill="#000000" d="
  M 260.86 1.56
  C 302.59 2.57 341.57 13.13 377.87 32.64
  C 382.14 34.93 384.91 38.04 384.52 43.06
  C 383.92 50.89 375.89 54.38 369.17 50.70
  C 333.96 31.41 296.18 21.67 255.83 21.50
  C 247.49 21.47 243.14 11.65 248.27 5.30
  C 251.70 1.04 256.08 1.45 260.86 1.56
  Z"
/>
<path fill="#000000" d="
  M 421.76 67.66
  C 421.76 73.17 417.30 77.63 411.79 77.63
  C 406.28 77.63 401.82 73.17 401.82 67.66
  C 401.82 62.15 406.28 57.69 411.79 57.69
  C 417.30 57.69 421.76 62.15 421.76 67.66
  Z"
/>
<path fill="#000000" d="
  M 110.36 211.82
  C 110.62 211.81 110.85 211.64 110.93 211.38
  C 113.72 202.21 117.37 193.38 121.90 184.91
  C 122.05 184.64 122.01 184.39 121.80 184.18
  C 117.60 179.98 113.42 175.83 109.27 171.72
  C 104.82 167.32 103.47 161.20 108.15 156.49
  C 123.85 140.74 139.95 124.63 156.45 108.16
  C 159.59 105.03 164.69 104.31 168.37 106.62
  C 169.84 107.54 171.36 108.81 172.91 110.42
  C 176.67 114.35 180.42 118.11 184.15 121.71
  C 184.41 121.96 184.70 122.00 185.03 121.83
  C 193.92 117.18 202.74 113.55 211.48 110.93
  C 211.68 110.87 211.82 110.69 211.82 110.48
  C 211.93 105.70 211.93 100.39 211.81 94.56
  C 211.69 88.73 212.63 84.13 218.12 81.86
  C 219.62 81.24 221.21 80.94 222.89 80.95
  C 244.82 81.14 266.40 81.13 287.63 80.92
  C 294.99 80.84 300.17 84.14 300.14 92.22
  C 300.11 98.51 300.11 104.51 300.13 110.20
  C 300.13 110.57 300.31 110.82 300.68 110.93
  C 310.01 113.81 318.83 117.48 327.12 121.93
  C 327.31 122.03 327.54 122.00 327.70 121.85
  C 331.36 118.36 335.05 114.67 338.76 110.76
  C 341.22 108.18 343.37 106.54 345.21 105.84
  C 349.62 104.17 353.53 106.03 356.70 109.23
  C 371.71 124.38 386.97 139.65 402.49 155.03
  C 408.09 160.58 408.22 166.44 402.53 171.96
  C 398.25 176.12 394.12 180.23 390.13 184.29
  C 389.99 184.44 389.95 184.66 390.05 184.84
  C 394.55 193.25 398.23 202.10 401.08 211.39
  C 401.15 211.63 401.37 211.79 401.61 211.80
  C 406.24 211.93 411.62 211.92 417.74 211.79
  C 420.91 211.72 423.41 212.10 425.24 212.91
  C 428.99 214.59 430.98 218.41 430.97 222.48
  C 430.93 243.84 430.95 265.62 431.04 287.81
  C 431.05 290.40 430.72 292.48 430.04 294.07
  C 427.69 299.60 422.75 300.31 417.33 300.21
  C 411.84 300.10 406.66 300.08 401.78 300.16
  C 401.40 300.17 401.15 300.35 401.04 300.72
  C 398.18 309.99 394.52 318.80 390.06 327.15
  C 389.96 327.33 389.99 327.56 390.14 327.71
  C 393.71 331.38 397.46 335.10 401.37 338.87
  C 403.75 341.16 405.29 343.14 405.99 344.81
  C 407.66 348.78 406.43 352.98 403.49 355.92
  C 387.44 371.95 371.62 387.79 356.03 403.42
  C 351.58 407.88 345.52 407.88 340.86 403.24
  C 336.59 398.97 332.28 394.67 327.95 390.32
  C 327.66 390.02 327.32 389.97 326.95 390.17
  C 318.74 394.56 309.99 398.19 300.70 401.06
  C 300.35 401.17 300.17 401.40 300.16 401.77
  C 300.07 406.83 300.08 412.23 300.19 417.96
  C 300.36 426.26 296.89 431.08 288.40 431.02
  C 266.88 430.89 245.60 430.89 224.55 431.04
  C 217.18 431.09 211.97 428.22 211.90 419.98
  C 211.85 413.74 211.85 407.65 211.89 401.72
  C 211.90 401.41 211.69 401.13 211.39 401.04
  C 202.13 398.21 193.27 394.54 184.82 390.04
  C 184.67 389.96 184.49 389.99 184.37 390.10
  C 180.68 393.61 176.75 397.55 172.59 401.93
  C 167.23 407.55 161.26 408.80 155.28 402.77
  C 139.97 387.32 124.29 371.62 108.26 355.69
  C 105.20 352.65 104.28 347.59 106.43 343.90
  C 107.28 342.45 108.58 340.87 110.35 339.16
  C 114.18 335.47 117.97 331.70 121.72 327.85
  C 121.98 327.58 122.02 327.29 121.84 326.96
  C 117.59 319.07 113.95 310.29 110.92 300.61
  C 110.84 300.35 110.61 300.18 110.34 300.17
  C 105.08 300.08 99.82 300.10 94.56 300.21
  C 91.00 300.29 88.35 299.90 86.61 299.05
  C 82.92 297.22 81.02 293.56 81.03 289.56
  C 81.05 268.05 81.04 245.98 80.99 223.34
  C 80.99 220.99 81.37 219.02 82.14 217.45
  C 84.59 212.47 89.18 211.68 94.32 211.79
  C 99.75 211.91 105.09 211.92 110.36 211.82
  Z
  M 142.65 188.85
  C 136.37 199.14 131.51 210.86 128.55 222.62
  C 126.97 228.87 123.51 232.03 116.81 231.91
  C 111.32 231.82 106.18 231.81 101.37 231.88
  C 101.18 231.89 101.03 232.04 101.03 232.23
  L 101.03 279.72
  C 101.03 279.97 101.16 280.10 101.41 280.11
  C 106.23 280.19 111.23 280.18 116.41 280.08
  C 123.95 279.93 127.03 283.25 128.77 290.15
  C 131.62 301.43 136.31 312.54 142.82 323.48
  C 145.94 328.73 144.61 333.52 140.33 337.63
  C 136.54 341.27 132.96 344.84 129.59 348.35
  C 129.50 348.45 129.50 348.61 129.60 348.71
  L 163.29 382.41
  C 163.41 382.53 163.61 382.53 163.74 382.40
  C 168.08 378.02 172.08 374.03 175.73 370.42
  C 179.72 366.49 184.65 366.83 189.24 369.56
  C 200.01 375.98 211.48 380.70 223.63 383.72
  C 229.59 385.20 231.99 389.48 231.91 395.47
  C 231.85 400.75 231.84 405.73 231.88 410.41
  C 231.88 410.78 232.07 410.96 232.44 410.96
  L 279.49 410.96
  C 279.92 410.96 280.13 410.75 280.13 410.33
  C 280.16 405.27 280.14 400.19 280.09 395.08
  C 280.02 388.87 282.82 385.13 288.84 383.60
  C 301.23 380.45 312.77 375.65 323.46 369.18
  C 327.67 366.63 332.68 366.88 336.26 370.41
  C 340.28 374.36 344.29 378.35 348.29 382.40
  C 348.41 382.53 348.61 382.53 348.73 382.41
  L 382.41 348.72
  C 382.53 348.60 382.53 348.42 382.41 348.30
  C 378.80 344.65 375.09 340.94 371.27 337.19
  C 367.07 333.07 366.26 328.35 369.33 323.20
  C 375.88 312.23 380.74 300.44 383.91 287.85
  C 385.34 282.17 389.93 279.95 395.57 280.08
  C 400.78 280.19 405.73 280.20 410.40 280.11
  C 410.78 280.10 410.97 279.90 410.97 279.52
  L 410.97 232.49
  C 410.97 232.06 410.75 231.84 410.32 231.84
  C 404.97 231.85 399.55 231.86 394.06 231.86
  C 388.84 231.85 385.01 228.73 383.79 223.83
  C 380.68 211.32 375.72 199.38 368.91 188.03
  C 366.54 184.07 367.13 179.08 370.39 175.77
  C 374.28 171.82 378.27 167.83 382.35 163.78
  C 382.51 163.62 382.51 163.36 382.35 163.20
  L 348.73 129.59
  C 348.60 129.46 348.40 129.46 348.28 129.59
  C 344.17 133.74 340.00 137.89 335.77 142.03
  C 332.74 144.99 327.47 145.25 323.72 142.96
  C 312.95 136.39 301.27 131.52 288.68 128.35
  C 283.71 127.10 280.20 123.68 280.16 118.33
  C 280.12 112.75 280.12 107.14 280.15 101.51
  C 280.15 101.26 279.94 101.05 279.69 101.05
  L 232.47 101.04
  C 232.07 101.04 231.87 101.24 231.86 101.64
  C 231.84 106.83 231.86 111.83 231.91 116.65
  C 231.98 121.96 229.88 126.57 224.36 128.00
  C 211.29 131.39 199.28 136.36 188.33 142.91
  C 183.94 145.53 179.02 144.93 175.34 141.23
  C 171.31 137.18 167.44 133.30 163.71 129.59
  C 163.59 129.47 163.40 129.47 163.28 129.59
  L 129.59 163.28
  C 129.47 163.39 129.47 163.57 129.59 163.69
  C 133.40 167.55 137.21 171.35 141.02 175.08
  C 145.05 179.04 145.58 184.05 142.65 188.85
  Z"
/>
<path fill="#000000" d="
  M 512.00 163.83
  L 512.00 166.31
  C 509.09 177.80 506.16 189.28 503.22 200.75
  C 501.49 207.53 493.65 210.47 487.65 206.48
  C 478.20 200.19 469.09 194.21 460.33 188.55
  C 458.89 187.62 457.72 186.55 456.81 185.34
  C 450.54 176.97 460.31 165.88 469.43 170.72
  C 471.21 171.66 473.03 172.81 474.89 174.18
  C 475.45 174.59 475.61 174.47 475.36 173.82
  C 467.32 152.25 456.05 132.00 441.56 113.07
  C 439.33 110.17 437.18 107.39 435.11 104.73
  C 433.92 103.20 433.44 101.19 433.69 98.71
  C 434.59 89.68 445.55 86.17 451.52 93.44
  C 468.63 114.27 482.21 136.98 492.03 161.48
  C 492.24 162.00 492.46 162.01 492.69 161.50
  C 497.08 151.97 509.95 153.42 512.00 163.83
  Z"
/>
<path fill="#000000" d="
  M 341.51 299.71
  C 341.50 303.28 339.52 306.58 336.44 308.36
  C 310.73 323.23 285.49 337.79 260.73 352.04
  C 257.61 353.83 253.72 353.47 250.69 351.72
  C 224.42 336.53 199.26 321.99 175.21 308.11
  C 172.04 306.28 170.47 302.84 170.47 299.21
  C 170.44 269.08 170.44 240.11 170.49 212.28
  C 170.49 208.67 172.42 205.50 175.42 203.77
  C 201.17 188.88 226.46 174.28 251.27 159.99
  C 254.42 158.18 258.30 158.49 261.37 160.27
  C 286.81 175.00 311.67 189.35 335.95 203.34
  C 339.65 205.47 341.50 208.51 341.51 212.48
  C 341.56 243.35 341.56 272.43 341.51 299.71
  Z
  M 311.09 212.68
  C 311.31 212.55 311.31 212.23 311.09 212.10
  L 256.21 180.41
  C 256.11 180.35 255.99 180.35 255.88 180.41
  L 200.97 212.09
  C 200.75 212.22 200.75 212.54 200.97 212.67
  L 255.89 244.35
  C 255.99 244.41 256.11 244.41 256.21 244.35
  L 311.09 212.68
  Z
  M 190.93 229.95
  C 190.72 229.83 190.46 229.98 190.46 230.22
  L 190.47 293.67
  C 190.47 293.78 190.53 293.88 190.63 293.94
  L 245.54 325.63
  C 245.74 325.75 246.00 325.60 246.00 325.36
  L 246.00 261.94
  C 246.00 261.83 245.94 261.73 245.85 261.67
  L 190.93 229.95
  Z
  M 321.35 293.97
  C 321.45 293.92 321.51 293.81 321.51 293.70
  L 321.54 230.28
  C 321.54 230.04 321.27 229.88 321.06 230.01
  L 266.16 261.70
  C 266.06 261.75 266.00 261.86 266.00 261.97
  L 266.00 325.39
  C 266.00 325.63 266.27 325.79 266.48 325.66
  L 321.35 293.97
  Z"
/>
<path fill="#000000" d="
  M 348.19 512.00
  L 345.42 512.00
  C 334.03 509.02 322.64 506.10 311.25 503.24
  C 308.29 502.49 306.07 500.64 304.58 497.68
  C 302.97 494.45 303.38 490.97 305.83 487.23
  C 311.62 478.40 317.66 469.20 323.96 459.61
  C 328.44 452.80 338.75 453.47 341.74 461.31
  C 343.81 466.74 340.76 470.60 337.86 474.85
  C 337.39 475.54 337.54 475.74 338.32 475.43
  C 389.04 455.57 428.49 422.81 456.67 377.15
  C 478.98 341.00 490.29 298.95 490.44 256.34
  C 490.47 249.41 496.76 244.43 503.45 246.54
  C 509.27 248.37 510.61 253.05 510.49 258.86
  C 509.77 294.75 502.60 327.94 488.97 358.44
  C 461.71 419.47 412.28 467.04 350.48 492.08
  C 349.92 492.31 349.92 492.53 350.48 492.74
  C 355.83 494.77 358.25 500.66 356.02 505.98
  C 354.71 509.12 352.10 511.13 348.19 512.00
  Z"
/>
<path fill="#000000" d="
  M 0.00 348.23
  L 0.00 345.51
  C 4.15 329.48 7.01 318.31 8.56 312.00
  C 10.54 304.00 18.34 301.50 25.04 305.94
  C 34.34 312.10 43.36 318.03 52.10 323.74
  C 58.30 327.78 59.01 336.75 52.52 340.79
  C 46.56 344.51 41.71 341.17 36.90 337.70
  C 36.41 337.35 36.28 337.46 36.50 338.01
  C 71.14 427.88 153.78 487.87 250.55 490.39
  C 255.29 490.51 257.92 490.63 258.43 490.76
  C 267.28 492.86 268.77 505.52 260.29 509.43
  C 258.68 510.18 256.57 510.53 253.98 510.49
  C 217.84 509.93 184.25 502.71 153.20 488.82
  C 92.37 461.63 45.42 412.54 19.96 350.64
  C 19.68 349.96 19.42 349.97 19.17 350.66
  C 17.11 356.42 10.48 358.07 5.61 355.93
  C 2.65 354.62 0.78 352.06 0.00 348.23
  Z"
/>
</svg>
