<svg width="30" height="40" viewBox="0 0 50 50" fill="none" xmlns="http://www.w3.org/2000/svg">
<path d="M15.9942 0H16.2452C17.3653 0.28418 18.4854 0.570313 19.6045 0.856446C19.9063 0.933594 20.1241 1.12109 20.2598 1.4209C20.4317 1.80078 20.3164 2.15332 20.0967 2.48438C19.4903 3.39942 18.9102 4.28028 18.3575 5.12598C17.7871 5.99903 16.4248 5.50293 16.5704 4.4541C16.6104 4.15918 16.8438 3.87598 17.0039 3.62793C17.0459 3.5625 17.0303 3.54492 16.959 3.57324C12.0674 5.48438 8.24222 8.6377 5.48539 13.0342C3.30472 16.5117 2.16605 20.5713 2.11039 24.6611C2.1055 24.9922 2.08109 25.2197 2.03617 25.3438C1.74515 26.1524 0.583043 26.1826 0.23734 25.4014C0.173863 25.2588 0.144566 25.0381 0.149449 24.7393C0.195347 21.6445 0.757847 18.7236 1.83695 15.9785C4.35941 9.56641 9.37992 4.56445 15.7725 1.94531C15.8223 1.92481 15.8223 1.90332 15.7725 1.88184C14.8028 1.47266 15.0235 0.196289 15.9942 0Z" fill="#EC6D12"/>
<path d="M25.4747 0.152172C29.5499 0.250805 33.3565 1.28206 36.9015 3.18733C37.3185 3.41096 37.589 3.71467 37.5509 4.20491C37.4923 4.96956 36.7081 5.31038 36.0519 4.951C32.6134 3.06721 28.9239 2.11604 24.9835 2.09944C24.169 2.09651 23.7442 1.13752 24.2452 0.517407C24.5802 0.101391 25.0079 0.14143 25.4747 0.152172Z" fill="#EC6D12"/>
<path d="M41.1875 6.60742C41.1875 7.14551 40.752 7.58106 40.2139 7.58106C39.6758 7.58106 39.2402 7.14551 39.2402 6.60742C39.2402 6.06934 39.6758 5.63379 40.2139 5.63379C40.752 5.63379 41.1875 6.06934 41.1875 6.60742Z" fill="#EC6D12"/>
<path d="M10.7773 20.6857C10.8027 20.6847 10.8252 20.6681 10.833 20.6427C11.1055 19.7472 11.4619 18.8849 11.9043 18.0578C11.9189 18.0314 11.915 18.007 11.8945 17.9865C11.4844 17.5763 11.0762 17.171 10.6709 16.7697C10.2363 16.34 10.1045 15.7423 10.5615 15.2824C12.0947 13.7443 13.667 12.171 15.2783 10.5626C15.585 10.257 16.083 10.1867 16.4424 10.4122C16.5859 10.5021 16.7344 10.6261 16.8857 10.7833C17.2529 11.1671 17.6191 11.5343 17.9834 11.8859C18.0088 11.9103 18.0371 11.9142 18.0693 11.8976C18.9375 11.4435 19.7988 11.089 20.6523 10.8331C20.6719 10.8273 20.6856 10.8097 20.6856 10.7892C20.6963 10.3224 20.6963 9.80385 20.6846 9.23451C20.6729 8.66518 20.7647 8.21596 21.3008 7.99428C21.4473 7.93373 21.6025 7.90444 21.7666 7.90541C23.9082 7.92397 26.0156 7.92299 28.0889 7.90248C28.8076 7.89467 29.3135 8.21694 29.3106 9.006C29.3076 9.62026 29.3076 10.2062 29.3096 10.7619C29.3096 10.798 29.3272 10.8224 29.3633 10.8331C30.2744 11.1144 31.1357 11.4728 31.9453 11.9074C31.9639 11.9171 31.9863 11.9142 32.002 11.8996C32.3594 11.5587 32.7197 11.1984 33.082 10.8165C33.3223 10.5646 33.5322 10.4044 33.7119 10.3361C34.1426 10.173 34.5244 10.3546 34.834 10.6671C36.2998 12.1466 37.79 13.6378 39.3057 15.1398C39.8525 15.6818 39.8652 16.254 39.3096 16.7931C38.8916 17.1994 38.4883 17.6007 38.0986 17.9972C38.085 18.0119 38.0811 18.0333 38.0908 18.0509C38.5303 18.8722 38.8897 19.7365 39.168 20.6437C39.1748 20.6671 39.1963 20.6828 39.2197 20.6837C39.6719 20.6964 40.1973 20.6955 40.7949 20.6828C41.1045 20.6759 41.3486 20.713 41.5274 20.7921C41.8936 20.9562 42.0879 21.3292 42.0869 21.7267C42.083 23.8126 42.085 25.9396 42.0938 28.1066C42.0947 28.3595 42.0625 28.5626 41.9961 28.7179C41.7666 29.258 41.2842 29.3273 40.7549 29.3175C40.2188 29.3068 39.7129 29.3048 39.2363 29.3126C39.1992 29.3136 39.1748 29.3312 39.1641 29.3673C38.8848 30.2726 38.5274 31.133 38.0918 31.9484C38.082 31.966 38.085 31.9884 38.0996 32.0031C38.4483 32.3615 38.8145 32.7248 39.1963 33.0929C39.4287 33.3166 39.5791 33.5099 39.6475 33.673C39.8106 34.0607 39.6904 34.4709 39.4033 34.758C37.8359 36.3234 36.291 37.8703 34.7686 39.3966C34.334 39.8322 33.7422 39.8322 33.2871 39.3791C32.8701 38.9621 32.4492 38.5421 32.0264 38.1173C31.9981 38.088 31.9649 38.0832 31.9287 38.1027C31.127 38.5314 30.2725 38.8859 29.3652 39.1662C29.3311 39.1769 29.3135 39.1994 29.3125 39.2355C29.3037 39.7296 29.3047 40.257 29.3154 40.8166C29.332 41.6271 28.9932 42.0978 28.1641 42.0919C26.0625 42.0792 23.9844 42.0793 21.9287 42.0939C21.209 42.0988 20.7002 41.8185 20.6934 41.0138C20.6885 40.4044 20.6885 39.8097 20.6924 39.2306C20.6934 39.2003 20.6729 39.173 20.6436 39.1642C19.7393 38.8878 18.874 38.5294 18.0488 38.09C18.0342 38.0822 18.0166 38.0851 18.0049 38.0959C17.6445 38.4386 17.2607 38.8234 16.8545 39.2511C16.3311 39.8 15.748 39.922 15.1641 39.3332C13.6689 37.8244 12.1377 36.2912 10.5723 34.7355C10.2734 34.4386 10.1836 33.9445 10.3936 33.5841C10.4766 33.4425 10.6035 33.2882 10.7764 33.1212C11.1504 32.7609 11.5205 32.3927 11.8867 32.0167C11.9121 31.9904 11.916 31.9621 11.8984 31.9298C11.4834 31.1593 11.1279 30.3019 10.832 29.3566C10.8242 29.3312 10.8018 29.3146 10.7754 29.3136C10.2617 29.3048 9.74805 29.3068 9.23438 29.3175C8.88672 29.3253 8.62793 29.2873 8.45801 29.2042C8.09766 29.0255 7.91211 28.6681 7.91309 28.2775C7.91504 26.1769 7.91406 24.0216 7.90918 21.8107C7.90918 21.5812 7.94629 21.3888 8.02148 21.2355C8.26074 20.7492 8.70898 20.672 9.21094 20.6828C9.74121 20.6945 10.2627 20.6955 10.7773 20.6857ZM13.9307 18.4425C13.3174 19.4474 12.8428 20.5919 12.5537 21.7404C12.3994 22.3507 12.0615 22.6593 11.4072 22.6476C10.8711 22.6388 10.3691 22.6378 9.89942 22.6447C9.88086 22.6457 9.86621 22.6603 9.86621 22.6789V27.3166C9.86621 27.341 9.87891 27.3537 9.90332 27.3546C10.374 27.3624 10.8623 27.3615 11.3682 27.3517C12.1045 27.3371 12.4053 27.6613 12.5752 28.3351C12.8535 29.4367 13.3115 30.5216 13.9473 31.59C14.252 32.1027 14.1221 32.5705 13.7041 32.9718C13.334 33.3273 12.9844 33.6759 12.6553 34.0187C12.6465 34.0285 12.6465 34.0441 12.6563 34.0539L15.9463 37.3449C15.958 37.3566 15.9775 37.3566 15.9902 37.3439C16.4141 36.9162 16.8047 36.5265 17.1611 36.174C17.5508 35.7902 18.0322 35.8234 18.4805 36.09C19.5322 36.7169 20.6523 37.1779 21.8389 37.4728C22.4209 37.6173 22.6553 38.0353 22.6475 38.6203C22.6416 39.1359 22.6406 39.6222 22.6445 40.0793C22.6445 40.1154 22.6631 40.133 22.6992 40.133H27.294C27.3359 40.133 27.3565 40.1125 27.3565 40.0714C27.3594 39.5773 27.3574 39.0812 27.3525 38.5822C27.3457 37.9757 27.6191 37.6105 28.207 37.4611C29.417 37.1535 30.544 36.6847 31.5879 36.0529C31.999 35.8039 32.4883 35.8283 32.8379 36.173C33.2305 36.5587 33.6221 36.9484 34.0127 37.3439C34.0244 37.3566 34.044 37.3566 34.0557 37.3449L37.3447 34.0548C37.3565 34.0431 37.3565 34.0255 37.3447 34.0138C36.9922 33.6574 36.6299 33.2951 36.2568 32.9289C35.8467 32.5265 35.7676 32.0656 36.0674 31.5626C36.707 30.4914 37.1817 29.34 37.4912 28.1105C37.6309 27.5558 38.0791 27.339 38.6299 27.3517C39.1387 27.3624 39.6221 27.3634 40.0781 27.3546C40.1152 27.3537 40.1338 27.3341 40.1338 27.297V22.7042C40.1338 22.6623 40.1123 22.6408 40.0703 22.6408C39.5479 22.6417 39.0186 22.6427 38.4824 22.6427C37.9727 22.6417 37.5986 22.3371 37.4795 21.8585C37.1758 20.6369 36.6914 19.4708 36.0264 18.3624C35.7949 17.9757 35.8525 17.4884 36.1709 17.1652C36.5508 16.7794 36.9404 16.3898 37.3389 15.9943C37.3545 15.9787 37.3545 15.9533 37.3389 15.9376L34.0557 12.6554C34.043 12.6427 34.0234 12.6427 34.0117 12.6554C33.6104 13.0607 33.2031 13.466 32.79 13.8703C32.4941 14.1593 31.9795 14.1847 31.6133 13.9611C30.5615 13.3195 29.4209 12.8439 28.1914 12.5343C27.7061 12.4123 27.3633 12.0783 27.3594 11.5558C27.3555 11.0109 27.3555 10.463 27.3584 9.91323C27.3584 9.88881 27.3379 9.8683 27.3135 9.8683L22.7022 9.86733C22.6631 9.86733 22.6436 9.88686 22.6426 9.92592C22.6406 10.4328 22.6426 10.921 22.6475 11.3917C22.6543 11.9103 22.4492 12.3605 21.9102 12.5001C20.6338 12.8312 19.4609 13.3165 18.3916 13.9562C17.9629 14.2121 17.4824 14.1535 17.123 13.7921C16.7295 13.3966 16.3516 13.0177 15.9873 12.6554C15.9756 12.6437 15.957 12.6437 15.9453 12.6554L12.6553 15.9455C12.6436 15.9562 12.6436 15.9738 12.6553 15.9855C13.0273 16.3624 13.3994 16.7335 13.7715 17.0978C14.165 17.4845 14.2168 17.9738 13.9307 18.4425Z" fill="#EC6D12"/>
<path d="M49.9999 15.9989V16.2411C49.7158 17.3632 49.4296 18.4843 49.1425 19.6044C48.9736 20.2665 48.2079 20.5536 47.622 20.1639C46.6992 19.5497 45.8095 18.9657 44.954 18.413C44.8134 18.3222 44.6992 18.2177 44.6103 18.0995C43.998 17.2821 44.9521 16.1991 45.8427 16.6718C46.0165 16.7636 46.1943 16.8759 46.3759 17.0097C46.4306 17.0497 46.4462 17.038 46.4218 16.9745C45.6367 14.8681 44.5361 12.8905 43.121 11.0419C42.9033 10.7587 42.6933 10.4872 42.4911 10.2274C42.3749 10.078 42.3281 9.88172 42.3525 9.63953C42.4404 8.7577 43.5107 8.41492 44.0937 9.12488C45.7646 11.1591 47.0908 13.3768 48.0497 15.7694C48.0702 15.8202 48.0917 15.8212 48.1142 15.7714C48.5429 14.8407 49.7997 14.9823 49.9999 15.9989Z" fill="#EC6D12"/>
<path d="M33.3506 29.2686C33.3497 29.6172 33.1563 29.9395 32.8555 30.1133C30.3448 31.5655 27.8799 32.9873 25.462 34.3789C25.1573 34.5537 24.7774 34.5186 24.4815 34.3477C21.9161 32.8643 19.459 31.4444 17.1104 30.0889C16.8008 29.9102 16.6475 29.5743 16.6475 29.2198C16.6446 26.2774 16.6446 23.4483 16.6495 20.7305C16.6495 20.378 16.8379 20.0684 17.1309 19.8994C19.6456 18.4453 22.1153 17.0196 24.5381 15.6241C24.8458 15.4473 25.2247 15.4776 25.5245 15.6514C28.0088 17.0899 30.4366 18.4912 32.8077 19.8575C33.169 20.0655 33.3497 20.3623 33.3506 20.75C33.3555 23.7647 33.3555 26.6045 33.3506 29.2686ZM30.3799 20.7696C30.4014 20.7569 30.4014 20.7256 30.3799 20.7129L25.0206 17.6182C25.0108 17.6123 24.9991 17.6123 24.9883 17.6182L19.626 20.7119C19.6045 20.7246 19.6045 20.7559 19.626 20.7686L24.9893 23.8623C24.9991 23.8682 25.0108 23.8682 25.0206 23.8623L30.3799 20.7696ZM18.6456 22.4561C18.625 22.4444 18.5997 22.459 18.5997 22.4825L18.6006 28.6787C18.6006 28.6895 18.6065 28.6993 18.6163 28.7051L23.9786 31.7998C23.9981 31.8116 24.0235 31.7969 24.0235 31.7735V25.5801C24.0235 25.5694 24.0176 25.5596 24.0088 25.5537L18.6456 22.4561ZM31.3819 28.708C31.3917 28.7032 31.3975 28.6924 31.3975 28.6817L31.4004 22.4883C31.4004 22.4649 31.3741 22.4492 31.3536 22.4619L25.9922 25.5567C25.9825 25.5616 25.9766 25.5723 25.9766 25.583V31.7764C25.9766 31.7998 26.003 31.8155 26.0235 31.8028L31.3819 28.708Z" fill="#EC6D12"/>
<path d="M34.003 50H33.7325C32.6202 49.7089 31.5079 49.4238 30.3956 49.1445C30.1066 49.0712 29.8898 48.8906 29.7443 48.6015C29.587 48.2861 29.6271 47.9462 29.8663 47.581C30.4318 46.7187 31.0216 45.8203 31.6368 44.8837C32.0743 44.2187 33.0812 44.2841 33.3732 45.0498C33.5753 45.58 33.2775 45.957 32.9943 46.372C32.9484 46.4394 32.963 46.4589 33.0392 46.4287C37.9923 44.4892 41.8448 41.29 44.5968 36.831C46.7755 33.3007 47.88 29.1943 47.8947 25.0331C47.8976 24.3564 48.5118 23.8701 49.1652 24.0761C49.7335 24.2548 49.8644 24.7119 49.8527 25.2792C49.7823 28.7841 49.0822 32.0253 47.7511 35.0039C45.089 40.9638 40.2618 45.6093 34.2267 48.0546C34.172 48.0771 34.172 48.0986 34.2267 48.1191C34.7491 48.3173 34.9855 48.8925 34.7677 49.4121C34.6398 49.7187 34.3849 49.915 34.003 50Z" fill="#EC6D12"/>
<path d="M0 34.0068V33.7412C0.405274 32.1758 0.684571 31.085 0.835938 30.4688C1.0293 29.6875 1.79102 29.4434 2.44531 29.877C3.35352 30.4785 4.23438 31.0576 5.08789 31.6152C5.69336 32.0098 5.7627 32.8858 5.12891 33.2803C4.54688 33.6436 4.07324 33.3174 3.60352 32.9785C3.55567 32.9443 3.54297 32.9551 3.56445 33.0088C6.94727 41.7852 15.0176 47.6436 24.4678 47.8897C24.9307 47.9014 25.1875 47.9131 25.2373 47.9258C26.1016 48.1309 26.2471 49.3672 25.419 49.749C25.2617 49.8223 25.0557 49.8565 24.8027 49.8526C21.2734 49.7979 17.9932 49.0928 14.9609 47.7363C9.02051 45.0811 4.43555 40.2871 1.94922 34.2422C1.92188 34.1758 1.89649 34.1768 1.87207 34.2442C1.6709 34.8067 1.02344 34.9678 0.547852 34.7588C0.258789 34.6309 0.0761719 34.3809 0 34.0068Z" fill="#EC6D12"/>
</svg>
